<svg width="16" height="16" viewBox="0 0 16 16" fill="none" xmlns="http://www.w3.org/2000/svg">
<path fill-rule="evenodd" clip-rule="evenodd" d="M1.33325 5.33333C1.33325 3.49238 2.82564 2 4.66659 2H11.3333C13.1742 2 14.6666 3.49238 14.6666 5.33333V8C14.6666 8.36819 14.3681 8.66667 13.9999 8.66667C13.6317 8.66667 13.3333 8.36819 13.3333 8V5.33333C13.3333 4.22876 12.4378 3.33333 11.3333 3.33333H4.66659C3.56202 3.33333 2.66659 4.22876 2.66659 5.33333V11.3333C2.66659 12.4379 3.56202 13.3333 4.66659 13.3333H7.99992C8.36811 13.3333 8.66659 13.6318 8.66659 14C8.66659 14.3682 8.36811 14.6667 7.99992 14.6667H4.66659C2.82564 14.6667 1.33325 13.1743 1.33325 11.3333V5.33333Z" fill="#1A9248" fill-opacity="0.6"/>
<path fill-rule="evenodd" clip-rule="evenodd" d="M5.33341 1.3335C5.7016 1.3335 6.00008 1.63197 6.00008 2.00016V4.00016C6.00008 4.36835 5.7016 4.66683 5.33341 4.66683C4.96522 4.66683 4.66675 4.36835 4.66675 4.00016V2.00016C4.66675 1.63197 4.96522 1.3335 5.33341 1.3335Z" fill="#1A9248" fill-opacity="0.6"/>
<path fill-rule="evenodd" clip-rule="evenodd" d="M4 6.66667C4 6.29848 4.29848 6 4.66667 6H11.3333C11.7015 6 12 6.29848 12 6.66667C12 7.03486 11.7015 7.33333 11.3333 7.33333H4.66667C4.29848 7.33333 4 7.03486 4 6.66667Z" fill="#1A9248" fill-opacity="0.6"/>
<path fill-rule="evenodd" clip-rule="evenodd" d="M10.6667 1.3335C11.0349 1.3335 11.3333 1.63197 11.3333 2.00016V4.00016C11.3333 4.36835 11.0349 4.66683 10.6667 4.66683C10.2985 4.66683 10 4.36835 10 4.00016V2.00016C10 1.63197 10.2985 1.3335 10.6667 1.3335Z" fill="#1A9248" fill-opacity="0.6"/>
<path fill-rule="evenodd" clip-rule="evenodd" d="M11.9999 10.6668C11.2635 10.6668 10.6666 11.2638 10.6666 12.0002C10.6666 12.7365 11.2635 13.3335 11.9999 13.3335C12.7363 13.3335 13.3333 12.7365 13.3333 12.0002C13.3333 11.2638 12.7363 10.6668 11.9999 10.6668ZM9.33325 12.0002C9.33325 10.5274 10.5272 9.3335 11.9999 9.3335C13.4727 9.3335 14.6666 10.5274 14.6666 12.0002C14.6666 13.4729 13.4727 14.6668 11.9999 14.6668C10.5272 14.6668 9.33325 13.4729 9.33325 12.0002Z" fill="#1A9248" fill-opacity="0.6"/>
</svg>
