<svg width="16" height="20" viewBox="0 0 16 20" fill="none" xmlns="http://www.w3.org/2000/svg">
<path d="M3.78566 5.71429C3.78566 7.76563 5.4486 9.42857 7.49995 9.42857C9.55129 9.42857 11.2142 7.76563 11.2142 5.71429C11.2142 3.66294 9.55129 2 7.49995 2" stroke="currentColor" stroke-width="1.5" stroke-linecap="round"/>
<path d="M1 14.9393C1 14.1404 1.50222 13.4278 2.25458 13.1591V13.1591C5.64661 11.9476 9.35339 11.9476 12.7454 13.1591V13.1591C13.4978 13.4278 14 14.1404 14 14.9393V16.1609C14 17.2635 13.0234 18.1105 11.9319 17.9546L11.3184 17.8669C8.78565 17.5051 6.21435 17.5051 3.68162 17.8669L3.06812 17.9546C1.97658 18.1105 1 17.2635 1 16.1609V14.9393Z" stroke="currentColor" stroke-width="1.5"/>
</svg>
