<svg width="22" height="18" viewBox="0 0 22 18" fill="none" xmlns="http://www.w3.org/2000/svg">
<path d="M7.80855 5.40419C7.80855 7.28431 9.33269 8.80845 11.2128 8.80845C13.0929 8.80845 14.6171 7.28431 14.6171 5.40419C14.6171 3.52408 13.0929 1.99994 11.2128 1.99994" stroke="#232323" stroke-width="1.5" stroke-linecap="round"/>
<path d="M5.25537 13.8594C5.25537 13.1271 5.71567 12.474 6.40524 12.2277V12.2277C9.51413 11.1174 12.9115 11.1174 16.0204 12.2277V12.2277C16.71 12.474 17.1703 13.1271 17.1703 13.8594V14.9789C17.1703 15.9895 16.2752 16.7658 15.2748 16.6229L14.9412 16.5753C12.4682 16.222 9.95746 16.222 7.48442 16.5753L7.15087 16.6229C6.15044 16.7658 5.25537 15.9895 5.25537 14.9789V13.8594Z" stroke="#232323" stroke-width="1.5"/>
<path d="M16.3191 8.90267C17.7964 8.90267 18.9939 7.70514 18.9939 6.2279C18.9939 4.75067 17.7964 3.55313 16.3191 3.55313" stroke="#232323" stroke-width="1.5" stroke-linecap="round"/>
<path d="M19.2486 15.005L19.5106 15.0424C20.2967 15.1547 21 14.5448 21 13.7507V12.8711C21 12.2958 20.6383 11.7825 20.0965 11.589C19.5561 11.396 19.0045 11.2457 18.4468 11.1381" stroke="#232323" stroke-width="1.5" stroke-linecap="round"/>
<path d="M5.68088 8.90267C4.20364 8.90267 3.0061 7.70514 3.0061 6.2279C3.0061 4.75067 4.20364 3.55313 5.68088 3.55313" stroke="#232323" stroke-width="1.5" stroke-linecap="round"/>
<path d="M2.75143 15.005L2.48935 15.0424C1.7033 15.1547 1.00003 14.5448 1.00003 13.7507V12.8711C1.00003 12.2958 1.3617 11.7825 1.9035 11.589C2.44395 11.396 2.99549 11.2457 3.55322 11.1381" stroke="#232323" stroke-width="1.5" stroke-linecap="round"/>
</svg>
