<svg width="17" height="16" viewBox="0 0 17 16" fill="none" xmlns="http://www.w3.org/2000/svg">
<path fill-rule="evenodd" clip-rule="evenodd" d="M7.63809 8.86177C7.89844 9.12211 7.89844 9.54422 7.63809 9.80457L4.77614 12.6665H6.59527C6.96346 12.6665 7.26194 12.965 7.26194 13.3332C7.26194 13.7014 6.96346 13.9999 6.59527 13.9999H3.16667C2.79848 13.9999 2.5 13.7014 2.5 13.3332V9.9046C2.5 9.53641 2.79848 9.23793 3.16667 9.23793C3.53486 9.23793 3.83333 9.53641 3.83333 9.9046V11.7237L6.69528 8.86177C6.95563 8.60142 7.37774 8.60142 7.63809 8.86177Z" fill="#105B2D" fill-opacity="0.6"/>
<path fill-rule="evenodd" clip-rule="evenodd" d="M9.83339 2.66667C9.83339 2.29848 10.1319 2 10.5001 2H13.8334C14.2016 2 14.5001 2.29848 14.5001 2.66667V6C14.5001 6.36819 14.2016 6.66667 13.8334 6.66667C13.4652 6.66667 13.1667 6.36819 13.1667 6V4.27615L10.3048 7.13807C10.0445 7.39842 9.62236 7.39843 9.36201 7.13808C9.10166 6.87773 9.10166 6.45562 9.36201 6.19527L12.2239 3.33333H10.5001C10.1319 3.33333 9.83339 3.03486 9.83339 2.66667Z" fill="#105B2D" fill-opacity="0.6"/>
</svg>
