<svg width="19" height="20" viewBox="0 0 19 20" fill="none" xmlns="http://www.w3.org/2000/svg">
<path d="M3.4827 15.9172C4.47721 16.9117 5.74428 17.589 7.1237 17.8634C8.50312 18.1377 9.93293 17.9969 11.2323 17.4587C12.5317 16.9205 13.6423 16.009 14.4237 14.8396C15.0191 13.9486 15.4029 12.9383 15.5519 11.8856C15.6293 11.3388 15.1744 10.8889 14.6221 10.8889H10.011C9.18259 10.8889 8.51101 10.2173 8.51101 9.38889V4.77778C8.51101 4.22549 8.06111 3.77056 7.51428 3.84797C6.46162 3.99699 5.45132 4.38085 4.56029 4.97622C3.39088 5.7576 2.47943 6.8682 1.9412 8.16759C1.40298 9.46697 1.26216 10.8968 1.53654 12.2762C1.60391 12.6149 1.69557 12.9468 1.81025 13.2696" stroke="#232323" stroke-width="1.5" stroke-linecap="round"/>
<path d="M11.1777 3C11.1777 2.44771 11.6282 1.99181 12.1734 2.08019C12.6478 2.15709 13.1128 2.28887 13.5588 2.47364C14.3137 2.78633 14.9997 3.24466 15.5775 3.82245C16.1552 4.40023 16.6136 5.08617 16.9263 5.84108C17.111 6.28715 17.2428 6.75214 17.3197 7.22652C17.4081 7.77168 16.9522 8.22222 16.3999 8.22222L12.1777 8.22222C11.6254 8.22222 11.1777 7.77451 11.1777 7.22222V3Z" stroke="#232323" stroke-width="1.5"/>
</svg>
