<svg width="19" height="20" viewBox="0 0 19 20" fill="none" xmlns="http://www.w3.org/2000/svg">
<path d="M1.5 9.3022C1.5 8.08439 2.05478 6.93291 3.00719 6.17396L7.00719 2.98646C8.46582 1.82411 10.5342 1.82411 11.9928 2.98646L15.9928 6.17396C16.9452 6.93291 17.5 8.08439 17.5 9.3022V14C17.5 16.2091 15.7091 18 13.5 18H13.0263C12.474 18 12.0263 17.5523 12.0263 17V14.9C12.0263 13.7954 11.1309 12.9 10.0263 12.9H8.97368C7.86911 12.9 6.97368 13.7954 6.97368 14.9V17C6.97368 17.5523 6.52597 18 5.97368 18H5.5C3.29086 18 1.5 16.2091 1.5 14L1.5 9.3022Z" stroke="#232323" stroke-width="1.5"/>
</svg>
