<svg width="17" height="20" viewBox="0 0 17 20" fill="none" xmlns="http://www.w3.org/2000/svg">
<path d="M1.3999 8.3V5.5C1.3999 3.29086 3.19076 1.5 5.3999 1.5H8.1999H9.81315C10.4067 1.5 10.9696 1.76365 11.3496 2.21963L14.5363 6.04373C14.8359 6.40316 14.9999 6.85623 14.9999 7.3241V10V14.5C14.9999 16.7091 13.209 18.5 10.9999 18.5H5.3999C3.19076 18.5 1.3999 16.7091 1.3999 14.5V12.55" stroke="currentColor" stroke-width="1.5" stroke-linecap="round"/>
<path d="M10.7498 1.925V4.9C10.7498 5.37043 10.9408 5.79623 11.2496 6.10403C11.5571 6.41052 11.9813 6.6 12.4498 6.6" stroke="currentColor" stroke-width="1.5" stroke-linecap="round"/>
<path d="M4.80005 10H8.20005" stroke="currentColor" stroke-width="1.5" stroke-linecap="round"/>
<path d="M11.6 10H10.75" stroke="currentColor" stroke-width="1.5" stroke-linecap="round"/>
<path d="M4.80005 14.25H8.20005" stroke="currentColor" stroke-width="1.5" stroke-linecap="round"/>
</svg>
