<svg width="19" height="20" viewBox="0 0 19 20" fill="none" xmlns="http://www.w3.org/2000/svg">
<path d="M1 5.54167L8.19038 2.35843C8.70599 2.13016 9.29401 2.13016 9.80963 2.35843L13 3.77083L17 5.54167M1 5.54167L5 7.3125M1 5.54167V9.225M9 9.08333V19M9 9.08333L17 5.54167M9 9.08333L5 7.3125M9 19L1.59519 15.7218C1.23335 15.5616 1 15.2031 1 14.8074V11.775M9 19L16.4048 15.7218C16.7667 15.5616 17 15.2031 17 14.8074V5.54167M5 7.3125L10.2 4.975" stroke="#232323" stroke-width="1.5" stroke-linecap="round" stroke-linejoin="round"/>
</svg>
